<?xml version="1.0" encoding="UTF-8"?>
<svg id="Layer_1" xmlns="http://www.w3.org/2000/svg" version="1.1" xmlns:xlink="http://www.w3.org/1999/xlink" viewBox="0 0 360 216">
  <!-- Generator: Adobe Illustrator 30.2.0, SVG Export Plug-In . SVG Version: 2.1.1 Build 105)  -->
  <defs>
    <style>
      .st0 {
        fill: #fff;
      }

      .st1 {
        fill: url(#GradientFill_11);
      }

      .st1, .st2, .st3, .st4, .st5 {
        fill-rule: evenodd;
      }

      .st2 {
        fill: #f39100;
      }

      .st3 {
        fill: url(#GradientFill_12);
      }

      .st4 {
        fill: url(#GradientFill_1);
      }

      .st5 {
        fill: #2f2e88;
      }
    </style>
    <linearGradient id="GradientFill_1" data-name="GradientFill 1" x1="7.88" y1="99.95" x2="223.05" y2="51.68" gradientUnits="userSpaceOnUse">
      <stop offset="0" stop-color="#ef7c00"/>
      <stop offset=".5" stop-color="#f7a600"/>
      <stop offset="1" stop-color="#fc0"/>
    </linearGradient>
    <linearGradient id="GradientFill_11" data-name="GradientFill 1" x1="68.32" y1="168.17" x2="217.83" y2="135.59" xlink:href="#GradientFill_1"/>
    <linearGradient id="GradientFill_12" data-name="GradientFill 1" x1="77.1" y1="117.26" x2="163.88" y2="97.19" xlink:href="#GradientFill_1"/>
  </defs>
  <g>
    <polygon class="st2" points="222.57 140.17 222.57 133.79 220.08 133.79 220.08 132.47 226.42 132.47 226.42 133.79 223.9 133.79 223.9 140.17 222.57 140.17"/>
    <path class="st2" d="M230.04,134.27c.76,0,1.41.28,1.95.85.54.57.81,1.26.81,2.07v2.92h-1.28v-2.92c0-.45-.14-.84-.43-1.16-.29-.32-.64-.49-1.04-.49s-.76.16-1.04.49c-.29.32-.43.71-.43,1.16v2.93h-1.28v-3.01s0-.03.01-.04v-4.6h1.26v2.26c.45-.31.95-.46,1.49-.46Z"/>
    <path class="st2" d="M235.22,136.36h2.55c-.09-.16-.2-.3-.33-.42-.13-.12-.28-.21-.44-.27-.16-.07-.33-.1-.51-.1-.26,0-.51.07-.73.21-.22.14-.4.33-.54.57h0ZM239.2,137.63h-4.18c.08.38.26.69.53.94.27.24.58.37.94.37.27,0,.51-.07.74-.21.22-.14.4-.33.54-.57h1.32c-.18.59-.51,1.07-.98,1.44-.47.37-1.01.56-1.62.56-.75,0-1.39-.28-1.92-.85-.53-.57-.8-1.25-.8-2.04s.27-1.48.8-2.04c.53-.57,1.17-.85,1.92-.85.61,0,1.14.19,1.62.56.47.37.8.85.98,1.44.09.28.13.58.13.89,0,.13,0,.26-.02.38Z"/>
    <polygon class="st2" points="247.81 140.13 246.44 140.13 243.87 132.47 245.22 132.47 247.12 138.5 249.03 132.47 250.38 132.47 247.81 140.13"/>
    <path class="st2" d="M252.5,140.13h-1.27v-5.86h1.27v5.86h0ZM251.88,133.95c-.14,0-.26-.03-.38-.1-.11-.07-.2-.15-.27-.27-.06-.11-.1-.24-.1-.37,0-.2.07-.38.22-.53.15-.15.32-.22.52-.22s.37.07.52.22c.15.15.22.32.22.52s-.07.37-.22.52c-.15.15-.32.22-.51.22Z"/>
    <path class="st2" d="M258.34,138.28c.03.41-.12.79-.46,1.14-.44.47-1.06.71-1.87.71-.74,0-1.32-.22-1.74-.66-.41-.41-.61-.91-.6-1.51l1.19.02c0,.27.08.49.25.66.2.2.49.3.9.3.5,0,.84-.12,1.03-.37.04-.05.06-.11.04-.17-.01-.06-.05-.11-.11-.14-.18-.09-.55-.22-1.11-.38l-.22-.07c-.23-.07-.43-.13-.6-.2-.17-.07-.35-.15-.53-.25-.18-.1-.33-.21-.44-.33-.12-.12-.21-.26-.29-.43-.07-.17-.11-.36-.11-.55,0-.4.17-.77.5-1.1.45-.44,1.05-.67,1.8-.67s1.4.23,1.82.7c.36.4.54.89.52,1.48v.13h-1.19v-.14c0-.29-.07-.52-.22-.68-.18-.2-.49-.3-.93-.3-.16,0-.3.02-.43.04-.13.03-.23.07-.3.11-.07.05-.13.1-.17.16-.04.06-.07.11-.09.15-.02.04-.02.08-.02.11,0,.04.02.08.03.11.01.03.05.07.1.13.06.06.16.12.31.18.15.06.34.13.58.2l.21.06c.22.06.39.12.5.15.12.04.27.09.46.16.19.07.34.14.45.21.11.07.23.16.35.26.12.1.21.22.27.34.06.13.1.26.11.41Z"/>
    <path class="st2" d="M260.78,140.13h-1.27v-5.86h1.27v5.86h0ZM260.15,133.95c-.14,0-.26-.03-.38-.1-.11-.07-.2-.15-.27-.27-.07-.11-.1-.24-.1-.37,0-.2.07-.38.22-.53.15-.15.32-.22.52-.22s.37.07.52.22c.15.15.22.32.22.52s-.07.37-.22.52c-.15.15-.32.22-.51.22Z"/>
    <path class="st2" d="M263.6,138.36c.29.32.64.49,1.04.49s.76-.16,1.04-.49c.29-.32.43-.71.43-1.16s-.14-.84-.43-1.16c-.29-.32-.64-.49-1.04-.49s-.76.16-1.04.49c-.29.32-.43.71-.43,1.16s.14.84.43,1.16h0ZM262.7,135.13c.54-.57,1.19-.85,1.95-.85s1.41.28,1.95.85c.54.57.81,1.26.81,2.07s-.27,1.5-.81,2.07c-.54.57-1.19.85-1.95.85s-1.41-.28-1.95-.85c-.54-.57-.81-1.26-.81-2.07s.27-1.5.81-2.07Z"/>
    <path class="st2" d="M269.2,135.13c.54-.57,1.19-.85,1.95-.85s1.41.29,1.95.85c.54.57.81,1.26.81,2.07v2.92h-1.28v-2.92c0-.45-.14-.84-.43-1.16-.29-.32-.64-.49-1.04-.49s-.76.16-1.04.49c-.29.32-.43.71-.43,1.16v2.93h-1.28v-2.93c0-.81.27-1.5.81-2.07Z"/>
    <path class="st2" d="M280.65,138.36c.29.32.64.49,1.04.49s.76-.16,1.04-.49c.29-.32.43-.71.43-1.16s-.14-.84-.43-1.16c-.29-.32-.64-.49-1.04-.49s-.76.16-1.04.49c-.29.32-.43.71-.43,1.16s.14.84.43,1.16h0ZM279.75,135.13c.54-.57,1.19-.85,1.95-.85s1.41.28,1.95.85c.54.57.81,1.26.81,2.07s-.27,1.5-.81,2.07c-.54.57-1.19.85-1.95.85s-1.41-.28-1.95-.85c-.54-.57-.81-1.26-.81-2.07s.27-1.5.81-2.07Z"/>
    <path class="st2" d="M287.95,133.6c-.64.02-.96.32-.96.91v.21h.96v1.28h-.96v4.13h-1.27v-4.13h-.36v-1.28h.36v-.24c0-.65.19-1.14.56-1.48.37-.34.91-.51,1.63-.51h.04v1.11Z"/>
    <polygon class="st2" points="295.01 140.17 295.01 133.79 292.52 133.79 292.52 132.47 298.86 132.47 298.86 133.79 296.35 133.79 296.35 140.17 295.01 140.17"/>
    <path class="st2" d="M300.31,138.36c.29.32.64.49,1.04.49s.76-.16,1.04-.49c.29-.32.43-.71.43-1.16s-.14-.84-.43-1.16c-.29-.32-.64-.49-1.04-.49s-.76.16-1.04.49c-.29.32-.43.71-.43,1.16s.14.84.43,1.16h0ZM299.41,135.13c.54-.57,1.19-.85,1.95-.85s1.41.28,1.95.85c.54.57.81,1.26.81,2.07s-.27,1.5-.81,2.07c-.54.57-1.19.85-1.95.85s-1.41-.28-1.95-.85c-.54-.57-.81-1.26-.81-2.07s.27-1.5.81-2.07Z"/>
    <path class="st2" d="M309.93,134.26c.55,0,1.03.2,1.42.6.39.4.59.87.59,1.43v3.84h-1.28v-3.84c0-.21-.07-.38-.21-.52-.14-.14-.32-.21-.52-.21s-.38.07-.53.21c-.15.14-.22.32-.22.52v3.84h-1.28v-3.84c0-.21-.07-.38-.21-.52-.14-.14-.32-.21-.52-.21s-.38.07-.52.21c-.15.14-.22.32-.22.52v3.84h-1.28v-3.84c0-.55.2-1.03.59-1.43.39-.4.87-.6,1.43-.6.53,0,.99.18,1.38.55.39-.36.85-.55,1.38-.55Z"/>
    <path class="st2" d="M314.7,138.36c.29.32.64.49,1.04.49s.76-.16,1.04-.49c.29-.32.43-.71.43-1.16s-.14-.84-.43-1.16c-.29-.32-.64-.49-1.04-.49s-.76.16-1.04.49c-.29.32-.43.71-.43,1.16s.14.84.43,1.16h0ZM313.8,135.13c.54-.57,1.19-.85,1.95-.85s1.41.28,1.95.85c.54.57.81,1.26.81,2.07s-.27,1.5-.81,2.07c-.54.57-1.19.85-1.95.85s-1.41-.28-1.95-.85c-.54-.57-.81-1.26-.81-2.07s.27-1.5.81-2.07Z"/>
    <polygon class="st2" points="319.61 134.26 322.55 134.26 322.55 135.54 320.86 135.54 320.86 140.13 319.61 140.13 319.61 134.26"/>
    <polygon class="st2" points="323.49 134.26 326.43 134.26 326.43 135.54 324.75 135.54 324.75 140.13 323.49 140.13 323.49 134.26"/>
    <path class="st2" d="M328.75,138.36c.29.32.64.49,1.04.49s.76-.16,1.04-.49c.29-.32.43-.71.43-1.16s-.14-.84-.43-1.16c-.29-.32-.64-.49-1.04-.49s-.76.16-1.04.49c-.29.32-.43.71-.43,1.16s.14.84.43,1.16h0ZM327.85,135.13c.54-.57,1.19-.85,1.95-.85s1.41.28,1.95.85c.54.57.81,1.26.81,2.07s-.27,1.5-.81,2.07c-.54.57-1.19.85-1.95.85s-1.41-.28-1.95-.85c-.54-.57-.81-1.26-.81-2.07s.27-1.5.81-2.07Z"/>
    <polygon class="st2" points="340.09 134.26 341.42 134.26 339.68 140.13 338.36 140.13 337.23 136.44 336.11 140.13 334.78 140.13 333.05 134.26 334.38 134.26 335.45 137.9 336.57 134.26 337.9 134.26 339.02 137.9 340.09 134.26"/>
    <path class="st4" d="M112.49,51.13h-.23c-.73,0-1.46,0-2.19.02h0c-36.34.44-70.7,14.06-105.61,24.18h0l51.99-12.96c36.33-5.82,73.46-3.09,109.95,1.58h0l60.53,16.59.29-.7-29.99-12.71c-27.12-9.72-55.93-15.99-84.74-15.99Z"/>
    <path class="st1" d="M183.5,146.82c-23.72,8.84-49.14,12.03-74.39,13.82h0l-43.08-3-.1.51,21.95,4.52c20.16,2.97,41.03,3.24,60.96-1.02h0c24.46-5.22,45.79-19.06,67.97-30.61l-33.32,15.78Z"/>
    <path class="st3" d="M100.48,60.63c-12.24,5.11-22.36,15.23-27.47,27.47h0c-5.41,12.96-5.18,27.14.62,39.92h0c4.02,8.84,10.76,16.48,18.97,21.64h0l8.62,4.33,9.39,2.59,9.21.63-9.09-1.22-9.03-3.13-8.06-4.73c-12.83-9.24-19.95-24.23-19.67-39.93h0c.28-15.41,7.68-29.94,20.56-38.6h0c5.02-3.38,10.72-5.81,16.64-7h0l9.38-.95,9.38.95c5.93,1.2,11.62,3.63,16.64,7h0c12.89,8.67,20.28,23.19,20.53,38.6h0c.3,18.92-10.33,36.69-27.71,44.62h0l-9.02,3.13-9.82,1.32-.74-.05.74.1,9.96-.68,9.4-2.59c9.02-3.44,17.03-9.67,22.66-17.51h0c8.07-11.24,11.22-25.14,8.55-38.73h0c-3.23-16.42-15.06-30.72-30.48-37.16h0c-6.34-2.65-13.3-3.04-20.09-4.06-6.79,1.02-13.76,1.41-20.09,4.06h0Z"/>
    <path class="st5" d="M111.69,127.75h-3.94l-5.13-38.92h3.39l3.69,30.41,3.39-30.41h3.39l-4.78,38.92h0ZM130.24,88.83h3.29v38.92h-3.29v-38.92h0ZM160.81,122.42c0,1.83-.62,3.27-1.87,4.31-1.25,1.05-2.72,1.57-4.41,1.57s-3.05-.47-4.26-1.42c-1.21-.95-1.82-2.29-1.82-4.01v-5.83h3.39v4.93c0,1.03.27,1.85.82,2.47.55.62,1.17.92,1.87.92s1.38-.28,1.94-.85c.56-.56.85-1.35.85-2.34v-3.19c0-1.99-.15-3.51-.45-4.56-.31-1.05-1.04-2.42-2.21-4.11l-1.35-2.14c-2.33-3.42-3.73-5.65-4.19-6.7-.45-1.05-.67-2.5-.67-4.36,0-2.36.14-4.13.42-5.31.28-1.18.95-2.06,1.98-2.64,1.04-.58,2.18-.87,3.46-.87,1.54,0,2.69.22,3.48.67.78.45,1.37,1.34,1.78,2.67.4,1.33.6,2.62.6,3.89v2.59h-3.39v-2.74c0-.9-.14-1.78-.43-2.64-.28-.86-.61-1.4-.98-1.62-.36-.22-.77-.32-1.2-.32-.37,0-.76.12-1.16.37-.4.25-.69.72-.88,1.42-.18.7-.27,1.53-.27,2.49v1.64c0,1.93.27,3.46.81,4.59.53,1.13,1.41,2.54,2.65,4.24l1.5,2.04c1.24,1.83,2.22,3.58,2.93,5.26.72,1.68,1.08,3.71,1.08,6.1v3.49h0ZM187.68,88.83v32.19c0,2.26-.55,4.04-1.64,5.33-1.1,1.3-2.51,1.94-4.24,1.94s-3.05-.64-4.16-1.92c-1.11-1.28-1.67-3.06-1.67-5.36v-32.19h3.34v32.09c0,1.4.17,2.53.5,3.41.33.88,1,1.32,1.99,1.32s1.64-.46,2.02-1.37c.38-.91.57-2.03.57-3.36v-32.09h3.29ZM206.33,88.83h3.79l4.83,38.92h-3.45l-.91-8.92h-5.11s-.95,8.92-.95,8.92h-3.45l5.23-38.92h0ZM205.86,116.1l4.39-.02-2.03-17.97-.15-1.79-.2,1.79-2.02,18h0ZM228.43,88.83h3.34v36.38h6.53v2.54h-9.87v-38.92Z"/>
    <path class="st5" d="M263.32,88.83v2.34h-7.38v15.15h5.33v2.54h-5.33v16.54h7.18v2.34h-10.46v-38.92h10.66ZM276.24,88.83h3.39l3.19,18.51,3.99-18.51h3.39l-5.83,24.02v14.9h-3.39v-14.9l-4.73-24.02h0ZM314.63,88.83v2.34h-7.38v15.15h5.33v2.54h-5.33v16.54h7.18v2.34h-10.46v-38.92h10.66ZM341.46,122.42c0,1.83-.62,3.27-1.87,4.31-1.25,1.05-2.72,1.57-4.41,1.57s-3.05-.47-4.26-1.42c-1.21-.95-1.82-2.29-1.82-4.01v-5.83h3.39v4.93c0,1.03.27,1.85.82,2.47.55.62,1.17.92,1.87.92s1.38-.28,1.94-.85c.56-.56.85-1.35.85-2.34v-3.19c0-1.99-.15-3.51-.45-4.56-.31-1.05-1.04-2.42-2.21-4.11l-1.36-2.14c-2.33-3.42-3.73-5.65-4.19-6.7-.45-1.05-.67-2.5-.67-4.36,0-2.36.14-4.13.42-5.31.28-1.18.95-2.06,1.98-2.64,1.04-.58,2.18-.87,3.45-.87,1.54,0,2.69.23,3.48.67.78.45,1.37,1.34,1.78,2.67.4,1.33.6,2.62.6,3.89v2.59h-3.39v-2.74c0-.9-.14-1.78-.43-2.64-.28-.86-.61-1.4-.98-1.62-.37-.21-.77-.32-1.2-.32-.38,0-.76.12-1.16.37-.4.25-.69.72-.88,1.42-.18.7-.27,1.53-.27,2.49v1.64c0,1.93.27,3.45.81,4.59.53,1.13,1.41,2.54,2.65,4.23l1.51,2.04c1.24,1.83,2.22,3.58,2.93,5.26.72,1.68,1.08,3.71,1.08,6.1v3.49Z"/>
  </g>
  <rect class="st0" x="368" y="108.29" width="6.01" height="6.01" rx="1.15" ry="1.15"/>
</svg>